<?xml version="1.0" encoding="utf-8"?>
<!-- Generator: Adobe Illustrator 24.0.1, SVG Export Plug-In . SVG Version: 6.00 Build 0)  -->
<svg version="1.1" id="Layer_1" xmlns="http://www.w3.org/2000/svg" xmlns:xlink="http://www.w3.org/1999/xlink" x="0px" y="0px"
	 viewBox="0 0 3560 600" style="enable-background:new 0 0 3560 600;" xml:space="preserve">
<style type="text/css">
	.st0{fill:#F3F3F1;}
	.st1{fill-rule:evenodd;clip-rule:evenodd;fill:#B1B1B1;}
	.st2{fill-rule:evenodd;clip-rule:evenodd;fill:#F3F3F1;}
	.st3{fill-rule:evenodd;clip-rule:evenodd;fill:#BAA9A9;}
</style>
<g>
	<polygon class="st0" points="2443.1,220.1 2412.3,314.7 2475.9,314.7 2444.8,220.1 	"/>
	<path class="st0" d="M2046,206.4h-36.2v83.4h36.2c30.4,0,45.1-17.1,45.1-42C2091.2,223.1,2076.5,206.4,2046,206.4z"/>
	<path class="st0" d="M1218.1,348.5c0,14.4,11.6,21.9,27.7,21.9c22.9,0,39.3-15.4,39-34.9v-13.7c-7.7,0.3-29.2,1.5-37.9,2.4
		C1229.4,325.9,1218.1,334.1,1218.1,348.5z"/>
	<path class="st0" d="M1552.3,251.8c-23.2,0-39.8,17.3-40.7,38.6h79C1590.6,267.8,1574.8,251.8,1552.3,251.8z"/>
	<path class="st0" d="M664.4,259.4c-26.3,0-43.8,20-45.1,43.8h87.5C706.4,277.9,689.6,259.4,664.4,259.4z"/>
	<path class="st0" d="M0,0.2v600h3560V0.2H0z M480.2,413.6l-49.6-174h-1.7l-49.9,174h-44.1l-69.7-247.5h47.9l44.8,182.2h2.4
		l47.5-182.2h43.8l47.9,182.5h2.1l44.8-182.5H594l-69.7,247.5H480.2z M748.4,332.9H618.9c0.5,31.6,19.1,50.2,47.5,50.2
		c19.1,0,32.1-8.2,37.6-19.1h42.7c-7.9,32.1-37.6,53.3-80.7,53.3c-56.1,0-90.2-37.3-90.2-95.4c0-57.4,34.9-96.4,87.8-96.4
		c45.5,0,84.8,28.4,84.8,93.7V332.9z M1080.2,345.3l-10.6-10.6l19.7-19.7h-78.4c-17.3,0-31.4,14-31.4,31.4V361
		c0,17.9-14.7,32.3-32.6,32c-17.4-0.3-31.4-14.6-31.4-32V249.3c0-8.2-6.6-14.8-14.8-14.8c-8.2,0-14.8,6.6-14.8,14.8v11.5
		c0,22.8-18.5,41.2-41.2,41.2H811v-15h33.7c14.5,0,26.2-11.7,26.2-26.2v-11.5c0-16.4,13.3-29.8,29.8-29.8
		c16.4,0,29.8,13.3,29.8,29.8V361c0,9.3,7.4,16.8,16.7,17c9.5,0.2,17.3-7.5,17.3-17v-14.6c0-25.6,20.8-46.4,46.4-46.4h78.4
		l-19.7-19.7l10.6-10.6l37.8,37.8L1080.2,345.3z M1335,401.8h-47.9v-25.6h-1.4c-9.2,17.1-26.7,29.1-54.3,29.1
		c-35.5,0-61.9-18.5-61.9-55.4c0-41.4,33.5-55,69-57.1c13.3-0.9,38.3-2.1,46.1-2.4v-15c-0.3-15.4-10.9-24.6-29.7-24.6
		c-17.1,0-28,7.9-30.8,20.5h-48.2c3.1-32.1,31.1-57.4,80.3-57.4c40.3,0,78.6,18.1,78.6,62.9V401.8z M1406.7,296.2v105.6h-50.6V216.2
		h48.9v32.1h2.1c6.8-22.9,23.9-34.9,44.8-34.9c5.1,0,11.6,0.7,16.1,1.7v45.1c-4.8-1.4-14.4-2.7-21.5-2.7
		C1423.5,257.6,1406.7,273.6,1406.7,296.2z M1638.4,322.2h-126.8c0,28,16.7,45.5,42.7,45.5c17.1,0,29.4-7.5,34.5-18.8h48.2
		c-7.2,34.2-37.9,56.7-83.7,56.7c-56.7,0-91.6-36.9-91.6-95.7c0-57.4,35.2-96,89.6-96c48.9,0,87.2,30.8,87.2,94V322.2z
		 M2054.3,331.2h-44.4v80.7h-51.3V164.4h97.1c56.4,0,88.5,34.5,88.5,83.4C2144.1,297.3,2111.3,331.2,2054.3,331.2z M2317,411.8
		h-157.9V164.4h51.3v205.1H2317V411.8z M2507.3,411.8l-18.5-57.1h-89.6l-18.8,57.1h-55.4l85.8-247.5h66l85.4,247.5H2507.3z
		 M2674.2,323.6v88.2H2623v-88.2l-90.2-159.3h57.8l57.1,106.6h2.4l56.7-106.6h57.8L2674.2,323.6z M2994.7,411.8h-157.9V164.4h51.3
		v205.1h106.6V411.8z M3061.6,411.8h-51.3V164.4h51.3V411.8z M3248.9,206.7h-111.8v60.2h101.2v42.4h-101.2v102.5h-51.3V164.4h163
		V206.7z M3431.7,411.8h-166.5V164.4h166.1v42.4h-114.8v60.2h106.3v42.4h-106.3v60.2h115.2V411.8z"/>
</g>
<path class="st1" d="M137-814c39.2,0,71-31.8,71-71s-31.8-71-71-71c-39.2,0-71,31.8-71,71S97.8-814,137-814z M144.5-932h-13.2v32.1
	l-22.7-22.7l-9.3,9.3l22.6,22.6H90v12.2h32.1l-22.7,22.7l9.3,9.3l22.6-22.6v31h13.2v-30.1l22,22l9.3-9.3l-23-23H184v-12.2h-31l23-23
	l-9.3-9.3l-22.1,22.1V-932z"/>
<path class="st0" d="M1240.4-820.1c28.1,0,49.2-16,49.2-40.6v-25.7c-6.9,10.7-24.6,13.2-44,15.6c-22.9,2.8-42,5.9-42,25.3
	C1203.7-829.5,1216.5-820.1,1240.4-820.1z"/>
<path class="st0" d="M1532-904h94c-5.2-26.4-21.5-42.3-45.4-42.3C1556.3-946.3,1538.3-930.4,1532-904z"/>
<path class="st0" d="M625.9-903.6h94c-5.2-26.4-21.5-42.3-45.4-42.3C650.2-945.9,632.2-930,625.9-903.6z"/>
<path class="st0" d="M2073.7-884.6c0,37.5-20.5,63.6-50.4,63.6c-30.2,0-51.8-26.8-51.8-64.6c0-35.8,21.5-60.8,51.8-60.8
	C2053.2-946.5,2073.7-921.1,2073.7-884.6z"/>
<path class="st0" d="M2271.4-904.1h-94.2c6.3-26.4,24.3-42.4,48.6-42.4C2249.9-946.5,2266.2-930.5,2271.4-904.1z"/>
<path class="st0" d="M2833.6-860.6c0,24.7-21.2,40.7-49.4,40.7c-24,0-36.8-9.4-36.8-25.4c0-19.5,19.1-22.6,42.1-25.4
	c19.5-2.4,37.2-4.9,44.1-15.6V-860.6z"/>
<path class="st2" d="M0-620v-596h3171v596H0z M66-885c0,39.2,31.8,71,71,71c39.2,0,71-31.8,71-71s-31.8-71-71-71
	C97.8-956,66-924.2,66-885z M369.8-791.3h-45.4L255.7-1034h43.3l50.6,182.1l49.6-182.1h38.8l49.9,182.4l50.6-182.4H582l-68.7,242.7
	H468l-49.2-181.4L369.8-791.3z M1232.1-787.9c-42.3,0-70.1-20.5-69.7-54.8c0.3-43,43-52,78.7-56.2c2.1-0.2,4.2-0.5,6.2-0.7l0,0
	c24.6-2.7,42.1-4.6,42.4-18c-0.3-18-14.2-29.8-37.8-29.8c-24.3,0-41.6,13.2-44,32.2h-41.3c3.8-38.8,38.5-65.9,86-65.9
	c49.6,0,77,27,77,66.2v83.2c0,5.2,2.8,8,9,8h10.1v31.9h-19.4c-18.7,0-30.2-7.6-33.3-21.5c-0.7-1.7-1.4-4.2-1.7-6.2
	C1283.4-799.6,1263.3-787.9,1232.1-787.9z M1489.4-882.9c0,56.2,38.5,96.4,94.7,96.4c43.3,0,74.2-23.9,83.6-63.5h-39.9
	c-6.2,18.4-22.2,28.8-43.3,28.8c-31.2,0-51.3-21.8-54.1-54.1h138v-9.7c-1.1-59.6-35.7-96.1-87.7-96.1
	C1529.3-981,1489.4-943.5,1489.4-882.9z M1413.1-791.7h-40.9v-183.8h32.9l4.8,36.1c11.8-25,33.3-38.1,63.8-38.1h6.9v39.9h-6.9
	c-38.2,0-60.7,20.5-60.7,55.1V-791.7z M583.3-882.5c0,56.2,38.5,96.4,94.7,96.4c43.3,0,74.2-23.9,83.6-63.5h-39.9
	c-6.2,18.4-22.2,28.8-43.3,28.8c-31.2,0-51.3-21.8-54.1-54.1h138v-9.7c-1-59.6-35.7-96.1-87.7-96.1
	C623.1-980.6,583.3-943.1,583.3-882.5z M1800-814c39.2,0,71-31.8,71-71s-31.8-71-71-71s-71,31.8-71,71S1760.8-814,1800-814z
	 M886-945.7c0-8.2,6.6-14.8,14.8-14.8c8.2,0,14.8,6.6,14.8,14.8V-834c0,17.4,14,31.7,31.4,32c17.9,0.3,32.6-14.1,32.6-32v-14.6
	c0-17.3,14-31.4,31.4-31.4h78.4l-19.7,19.7l10.6,10.6l37.8-37.8l-37.8-37.8l-10.6,10.6l19.7,19.7h-78.4c-25.6,0-46.4,20.8-46.4,46.4
	v14.6c0,9.5-7.8,17.2-17.3,17c-9.3-0.2-16.7-7.7-16.7-17v-111.7c0-16.4-13.3-29.8-29.8-29.8c-16.4,0-29.8,13.3-29.8,29.8v11.5
	c0,14.5-11.7,26.2-26.2,26.2H811v15h33.7c22.8,0,41.2-18.5,41.2-41.2V-945.7z M1967.4-824.1c11.5,23.3,35.8,37.9,65,37.9
	c49,0,83.4-40.3,83.4-98.3c0-57-34.4-96.6-83.1-96.6c-26.1,0-48,11.5-61.2,29.5v-100.4h-41v260.6h33L1967.4-824.1z M2134.5-882.9
	c0,56.3,38.6,96.6,94.9,96.6c43.4,0,74.4-24,83.8-63.6h-40c-6.3,18.4-22.2,28.8-43.4,28.8c-31.3,0-51.4-21.9-54.2-54.2h138.3v-9.7
	c-1-59.8-35.8-96.3-87.9-96.3C2174.5-981.2,2134.5-943.7,2134.5-882.9z M2333-850.2c2.4,40.3,32.3,63.9,82.7,63.9
	c45.2,0,70.9-20.9,70.9-54.9c0-33-21.9-44.1-58.4-56.3l-22.2-7.3c-1.2-0.4-2.5-0.8-3.8-1.3c-12.3-4.1-25.4-8.4-25.4-21.3
	c0-12.5,10.4-20.2,28.5-20.2c21.2,0,36.1,9.7,38.2,30.6h38.9c-4.9-41.7-34-64.3-76.8-64.3c-44.1,0-69.2,21.5-69.2,54.2
	c0,34.1,26.4,44.5,57,54.6l24.3,8c1.1,0.3,2.1,0.7,3.1,1c14.4,4.6,24.7,7.9,24.7,21.2c0,14.2-11.1,22.2-32,22.2
	c-22.6,0-39.6-10.4-41-30.2H2333z M2589.2-791.5h23.6v-34.8H2592c-15.3,0-23.3-8.7-23.3-24.3v-90.4h47.6v-34.8h-47.6v-62.9h-41v62.9
	h-32.3v34.8h32.3v93.1C2527.7-811.3,2549.3-791.5,2589.2-791.5z M2706.1-842.6c-0.3,34.4,27.5,54.9,69.8,54.9
	c31.3,0,51.4-11.8,62.2-31.6c0.3,2.1,1,4.5,1.7,6.3c3.1,13.9,14.6,21.5,33.4,21.5h19.5v-32h-10.1c-6.3,0-9-2.8-9-8v-83.4
	c0-39.3-27.5-66.4-77.2-66.4c-47.6,0-82.4,27.1-86.2,66h41.4c2.4-19.1,19.8-32.3,44.1-32.3c23.6,0,37.5,11.8,37.9,29.9
	c-0.3,13.5-17.9,15.4-42.5,18.1c-2,0.2-4.1,0.4-6.2,0.7C2749.1-894.7,2706.4-885.6,2706.1-842.6z M2993.2-791.5h23.6v-34.8H2996
	c-15.3,0-23.3-8.7-23.3-24.3v-90.4h47.6v-34.8h-47.6v-62.9h-41v62.9h-32.3v34.8h32.3v93.1C2931.7-811.3,2953.2-791.5,2993.2-791.5z
	 M3039.2-954.8c0,15.3,11.5,26.8,26.4,26.8c15.3,0,26.8-11.5,26.8-26.8c0-14.9-11.5-26.4-26.8-26.4
	C3050.6-981.2,3039.2-969.7,3039.2-954.8z M3039.2-813.7c0,15.3,11.5,26.8,26.4,26.8c15.3,0,26.8-11.5,26.8-26.8
	c0-14.9-11.5-26.4-26.8-26.4C3050.6-840.1,3039.2-828.7,3039.2-813.7z"/>
<path class="st3" d="M1800-814c39.2,0,71-31.8,71-71s-31.8-71-71-71s-71,31.8-71,71S1760.8-814,1800-814z M1800-932
	c-4.2,24-23,42.8-47,47c24,4.2,42.8,23,47,47c4.2-24,23-42.8,47-47C1823-889.2,1804.2-908,1800-932z"/>
<g>
	
		<text transform="matrix(1 0 0 1 259.7316 -791.7938)" style="font-family:'Pretendard-SemiBold-KSCpc-EUC-H'; font-size:350px; letter-spacing:-17;">We</text>
	
		<text transform="matrix(1 0 0 1 1148.6666 -793.5455)" style="font-family:'Pretendard-Bold-KSCpc-EUC-H'; font-size:350px; letter-spacing:-17;">are</text>
	
		<text transform="matrix(1 0 0 1 1907.6997 -793.5455)" style="font-family:'Pretendard-Bold-KSCpc-EUC-H'; font-size:350px; letter-spacing:-17;">PLAY LIFE</text>
</g>
<path class="st1" d="M137,371.2c39.2,0,71-31.8,71-71s-31.8-71-71-71c-39.2,0-71,31.8-71,71S97.8,371.2,137,371.2z M144.5,253.2
	h-13.2v32.1l-22.7-22.7l-9.3,9.3l22.6,22.6H90v12.2h32.1l-22.7,22.7l9.3,9.3l22.6-22.6v31h13.2v-30.1l22,22l9.3-9.3l-23-23H184
	v-12.2h-31l23-23l-9.3-9.3l-22.1,22.1V253.2z"/>
<path class="st3" d="M1800,371.2c39.2,0,71-31.8,71-71s-31.8-71-71-71s-71,31.8-71,71S1760.8,371.2,1800,371.2z M1800,253.2
	c-4.2,24-23,42.8-47,47c24,4.2,42.8,23,47,47c4.2-24,23-42.8,47-47C1823,296,1804.2,277.2,1800,253.2z"/>
</svg>
